<svg xmlns="http://www.w3.org/2000/svg" version="1.1" xmlns:xlink="http://www.w3.org/1999/xlink" xmlns:svgjs="http://svgjs.dev/svgjs" width="1200" height="600" preserveAspectRatio="none" viewBox="0 0 1200 600"><g mask="url(&quot;#SvgjsMask1068&quot;)" fill="none"><rect width="1200" height="600" x="0" y="0" fill="rgba(250, 250, 250, 1)"></rect><path d="M15 600L615 0L708 0L108 600z" fill="url(&quot;#SvgjsLinearGradient1069&quot;)"></path><path d="M442 600L1042 0L1445.5 0L845.5 600z" fill="url(&quot;#SvgjsLinearGradient1069&quot;)"></path><path d="M1155 600L555 0L307.5 0L907.5 600z" fill="url(&quot;#SvgjsLinearGradient1070&quot;)"></path><path d="M748 600L148 0L-20 0L580 600z" fill="url(&quot;#SvgjsLinearGradient1070&quot;)"></path><path d="M665.800084611722 600L1200 65.80008461172201L1200 600z" fill="url(&quot;#SvgjsLinearGradient1069&quot;)"></path><path d="M0 600L534.199915388278 600L 0 65.80008461172201z" fill="url(&quot;#SvgjsLinearGradient1070&quot;)"></path></g><defs><mask id="SvgjsMask1068"><rect width="1200" height="600" fill="#ffffff"></rect></mask><linearGradient x1="0%" y1="100%" x2="100%" y2="0%" id="SvgjsLinearGradient1069"><stop stop-color="rgba(0, 62, 66, 0.45)" offset="0"></stop><stop stop-opacity="0" stop-color="rgba(0, 62, 66, 0.45)" offset="0.66"></stop></linearGradient><linearGradient x1="100%" y1="100%" x2="0%" y2="0%" id="SvgjsLinearGradient1070"><stop stop-color="rgba(0, 62, 66, 0.45)" offset="0"></stop><stop stop-opacity="0" stop-color="rgba(0, 62, 66, 0.45)" offset="0.66"></stop></linearGradient></defs></svg>